<?xml version="1.0" encoding="utf-8"?>
<!-- Generator: Adobe Illustrator 25.2.0, SVG Export Plug-In . SVG Version: 6.00 Build 0)  -->
<svg version="1.1" id="Layer_1" xmlns="http://www.w3.org/2000/svg" xmlns:xlink="http://www.w3.org/1999/xlink" x="0px" y="0px"
	 viewBox="0 0 24 24" style="enable-background:new 0 0 24 24;" xml:space="preserve">
<style type="text/css">
	.st0{fill:#8282D8;}
	.st1{fill:#4C4CD8;}
	.st2{fill:#6050DC;}
	.st3{fill:#6C6CD8;}
	.st4{fill:#5E58DB;}
</style>
<path class="st0" d="M13.8,6.1l2.9-1.4C17,4.5,17.1,4,16.9,3.7c-1.1-1.2-2.1-2.1-3-2.9c-0.4-0.3-1-0.1-1,0.5v4.3
	C12.9,6,13.4,6.3,13.8,6.1z"/>
<path class="st1" d="M12.9,20.8v2c0,0.4,0.3,0.7,0.7,0.6c3.3-0.5,6-2.7,7.3-5.7c0.2-0.5-0.3-1-0.8-0.8l-6.8,3.3
	C13,20.3,12.9,20.5,12.9,20.8z"/>
<path class="st2" d="M11.1,1.3c0-0.5-0.6-0.8-1-0.5c-2.8,2.4-7.8,7.3-7.8,13c0,4.8,3.5,8.8,8.1,9.5c0.4,0.1,0.7-0.2,0.7-0.6V1.3z"/>
<path class="st3" d="M13.7,12.1L20,9.5c0.3-0.1,0.5-0.5,0.3-0.8c-0.4-0.9-1-1.7-1.5-2.5c-0.2-0.2-0.5-0.3-0.7-0.2l-4.9,2.4
	c-0.2,0.1-0.3,0.3-0.3,0.5v2.7C12.9,12,13.3,12.3,13.7,12.1z"/>
<path class="st4" d="M21.3,14.3c0.2-0.1,0.3-0.3,0.3-0.5c0-0.8-0.1-1.5-0.3-2.3c-0.1-0.4-0.5-0.5-0.8-0.4l-7.3,3.1
	c-0.2,0.1-0.4,0.3-0.4,0.5v2.6c0,0.4,0.5,0.7,0.9,0.5l7-3.4L21.3,14.3z"/>
<text transform="matrix(1 0 0 1 256 256)"><tspan x="0" y="0" style="font-family:'MyriadPro-Regular'; font-size:12px; letter-spacing:33;">	</tspan><tspan x="36" y="0" style="font-family:'MyriadPro-Regular'; font-size:12px;">#8A2BE2</tspan></text>
</svg>
